<svg width="24" height="24" viewBox="0 0 24 24" fill="none" xmlns="http://www.w3.org/2000/svg">
<path fill-rule="evenodd" clip-rule="evenodd" d="M5.99752 2.24627C6.41173 2.24627 6.74752 2.58205 6.74752 2.99627C6.74752 4.79211 8.20334 6.24793 9.99918 6.24793C10.4134 6.24793 10.7492 6.58372 10.7492 6.99793C10.7492 7.41215 10.4134 7.74793 9.99918 7.74793C8.20334 7.74793 6.74752 9.20375 6.74752 10.9996C6.74752 11.4138 6.41173 11.7496 5.99752 11.7496C5.5833 11.7496 5.24752 11.4138 5.24752 10.9996C5.24752 9.20375 3.7917 7.74793 1.99585 7.74793C1.58164 7.74793 1.24585 7.41215 1.24585 6.99793C1.24585 6.58372 1.58164 6.24793 1.99585 6.24793C3.7917 6.24793 5.24752 4.79211 5.24752 2.99627C5.24752 2.58205 5.5833 2.24627 5.99752 2.24627ZM5.99752 5.55957C5.62733 6.13629 5.13588 6.62774 4.55916 6.99793C5.13588 7.36812 5.62733 7.85957 5.99752 8.43629C6.3677 7.85957 6.85916 7.36812 7.43587 6.99793C6.85916 6.62774 6.3677 6.13629 5.99752 5.55957Z" fill="black"/>
<path fill-rule="evenodd" clip-rule="evenodd" d="M17.0021 4.2471C17.4163 4.2471 17.7521 4.58289 17.7521 4.9971C17.7521 7.34546 19.6558 9.24918 22.0042 9.24918C22.4184 9.24918 22.7542 9.58497 22.7542 9.99918C22.7542 10.4134 22.4184 10.7492 22.0042 10.7492C19.6558 10.7492 17.7521 12.6529 17.7521 15.0013C17.7521 15.4155 17.4163 15.7513 17.0021 15.7513C16.5879 15.7513 16.2521 15.4155 16.2521 15.0013C16.2521 12.6529 14.3484 10.7492 12 10.7492C11.5858 10.7492 11.25 10.4134 11.25 9.99918C11.25 9.58497 11.5858 9.24918 12 9.24918C14.3484 9.24918 16.2521 7.34546 16.2521 4.9971C16.2521 4.58289 16.5879 4.2471 17.0021 4.2471ZM17.0021 7.83912C16.4898 8.73884 15.7418 9.48689 14.842 9.99918C15.7418 10.5115 16.4898 11.2595 17.0021 12.1592C17.5144 11.2595 18.2624 10.5115 19.1622 9.99918C18.2624 9.48689 17.5144 8.73884 17.0021 7.83912Z" fill="black"/>
<path fill-rule="evenodd" clip-rule="evenodd" d="M17.0021 14.2513C17.4163 14.2513 17.7521 14.5871 17.7521 15.0013V16.0017C17.7521 16.4159 17.4163 16.7517 17.0021 16.7517C16.5879 16.7517 16.2521 16.4159 16.2521 16.0017L16.2521 15.0013C16.2521 14.5871 16.5879 14.2513 17.0021 14.2513Z" fill="black"/>
<path fill-rule="evenodd" clip-rule="evenodd" d="M17.0021 3.24668C17.4163 3.24668 17.7521 3.58247 17.7521 3.99668V4.9971C17.7521 5.41131 17.4163 5.7471 17.0021 5.7471C16.5879 5.7471 16.2521 5.41131 16.2521 4.9971L16.2521 3.99668C16.2521 3.58247 16.5879 3.24668 17.0021 3.24668Z" fill="black"/>
<path fill-rule="evenodd" clip-rule="evenodd" d="M9.99918 20.2538C10.4134 20.2538 10.7492 20.5896 10.7492 21.0038V22.0042C10.7492 22.4184 10.4134 22.7542 9.99918 22.7542C9.58497 22.7542 9.24918 22.4184 9.24918 22.0042V21.0038C9.24918 20.5896 9.58497 20.2538 9.99918 20.2538Z" fill="black"/>
<path fill-rule="evenodd" clip-rule="evenodd" d="M9.99918 12.2504C10.4134 12.2504 10.7492 12.5862 10.7492 13.0004V14.0008C10.7492 14.4151 10.4134 14.7508 9.99918 14.7508C9.58497 14.7508 9.24918 14.4151 9.24918 14.0008V13.0004C9.24918 12.5862 9.58497 12.2504 9.99918 12.2504Z" fill="black"/>
<path fill-rule="evenodd" clip-rule="evenodd" d="M5.99752 10.2496C6.41173 10.2496 6.74752 10.5854 6.74752 10.9996V12C6.74752 12.4142 6.41173 12.75 5.99752 12.75C5.5833 12.75 5.24752 12.4142 5.24752 12V10.9996C5.24752 10.5854 5.5833 10.2496 5.99752 10.2496Z" fill="black"/>
<path fill-rule="evenodd" clip-rule="evenodd" d="M5.99752 1.24585C6.41173 1.24585 6.74752 1.58164 6.74752 1.99585V2.99627C6.74752 3.41048 6.41173 3.74627 5.99752 3.74627C5.5833 3.74627 5.24752 3.41048 5.24752 2.99627V1.99585C5.24752 1.58164 5.5833 1.24585 5.99752 1.24585Z" fill="black"/>
<path fill-rule="evenodd" clip-rule="evenodd" d="M9.99918 12.7506C10.4134 12.7506 10.7492 13.0864 10.7492 13.5006C10.7492 15.2965 12.205 16.7523 14.0008 16.7523C14.4151 16.7523 14.7508 17.0881 14.7508 17.5023C14.7508 17.9165 14.4151 18.2523 14.0008 18.2523C12.205 18.2523 10.7492 19.7081 10.7492 21.504C10.7492 21.9182 10.4134 22.254 9.99918 22.254C9.58497 22.254 9.24918 21.9182 9.24918 21.504C9.24918 19.7081 7.79336 18.2523 5.99752 18.2523C5.5833 18.2523 5.24752 17.9165 5.24752 17.5023C5.24752 17.0881 5.5833 16.7523 5.99752 16.7523C7.79336 16.7523 9.24918 15.2965 9.24918 13.5006C9.24918 13.0864 9.58497 12.7506 9.99918 12.7506ZM9.99918 16.0639C9.62899 16.6407 9.13754 17.1321 8.56082 17.5023C9.13754 17.8725 9.62899 18.3639 9.99918 18.9407C10.3694 18.3639 10.8608 17.8725 11.4375 17.5023C10.8608 17.1321 10.3694 16.6407 9.99918 16.0639Z" fill="black"/>
</svg>
