<svg width="24" height="24" viewBox="0 0 24 24" fill="none" xmlns="http://www.w3.org/2000/svg">
<path fill-rule="evenodd" clip-rule="evenodd" d="M7.91216 10.5803C8.20505 10.2874 8.67993 10.2874 8.97282 10.5803L12 13.6075L15.0271 10.5803C15.32 10.2874 15.7949 10.2874 16.0878 10.5803C16.3807 10.8732 16.3807 11.3481 16.0878 11.641L12.5303 15.1985C12.2374 15.4914 11.7625 15.4914 11.4696 15.1985L7.91216 11.641C7.61927 11.3481 7.61927 10.8732 7.91216 10.5803Z" fill="black"/>
<path fill-rule="evenodd" clip-rule="evenodd" d="M12 3.2467C12.4142 3.2467 12.75 3.58249 12.75 3.9967V14.6681C12.75 15.0824 12.4142 15.4181 12 15.4181C11.5858 15.4181 11.25 15.0824 11.25 14.6681V3.9967C11.25 3.58249 11.5858 3.2467 12 3.2467Z" fill="black"/>
<path fill-rule="evenodd" clip-rule="evenodd" d="M3.99664 15.6958C4.41086 15.6958 4.74664 16.0316 4.74664 16.4458C4.74664 17.9963 6.0036 19.2533 7.55412 19.2533H16.4458C17.9964 19.2533 19.2533 17.9963 19.2533 16.4458C19.2533 16.0316 19.5891 15.6958 20.0033 15.6958C20.4175 15.6958 20.7533 16.0316 20.7533 16.4458C20.7533 18.8247 18.8248 20.7533 16.4458 20.7533H7.55412C5.17517 20.7533 3.24664 18.8247 3.24664 16.4458C3.24664 16.0316 3.58243 15.6958 3.99664 15.6958Z" fill="black"/>
</svg>
