<svg width="24" height="24" viewBox="0 0 24 24" fill="none" xmlns="http://www.w3.org/2000/svg">
<path fill-rule="evenodd" clip-rule="evenodd" d="M7.49998 3.25C7.91419 3.25 8.24998 3.58579 8.24998 4V6.25H11.501C11.7102 6.25 11.9099 6.3374 12.0519 6.49108C12.1939 6.64477 12.2652 6.85077 12.2486 7.05934C12.0592 9.44554 10.8637 11.6632 9.1099 13.2642C9.81731 13.8183 10.6679 14.182 11.559 14.2523C11.9719 14.2849 12.2802 14.6461 12.2477 15.059C12.2151 15.4719 11.8539 15.7803 11.441 15.7477C10.1228 15.6436 8.88494 15.073 7.9013 14.2098C6.60976 15.0697 5.12055 15.6241 3.55913 15.7477C3.14621 15.7803 2.78498 15.4721 2.75231 15.0592C2.71964 14.6462 3.0279 14.285 3.44082 14.2523C4.66514 14.1555 5.84218 13.7356 6.88139 13.0832C6.24871 12.1976 5.8389 11.1561 5.7523 10.059C5.71971 9.64609 6.02803 9.28492 6.44096 9.25233C6.85389 9.21973 7.21506 9.52805 7.24765 9.94098C7.31103 10.7439 7.61256 11.514 8.07701 12.176C9.36683 11.0065 10.3071 9.44576 10.6415 7.75H3.50098C3.08676 7.75 2.75098 7.41421 2.75098 7C2.75098 6.58579 3.08676 6.25 3.50098 6.25H6.74998V4C6.74998 3.58579 7.08576 3.25 7.49998 3.25ZM16.5 10.25C16.7964 10.25 17.065 10.4246 17.1853 10.6954L21.1853 19.6954C21.3536 20.0739 21.1831 20.5171 20.8046 20.6854C20.4261 20.8536 19.9828 20.6831 19.8146 20.3046L19.1237 18.75H13.8763L13.1853 20.3046C13.0171 20.6831 12.5739 20.8536 12.1954 20.6854C11.8169 20.5171 11.6464 20.0739 11.8146 19.6954L15.8146 10.6954C15.935 10.4246 16.2036 10.25 16.5 10.25ZM14.5429 17.25H18.457L16.5 12.8467L14.5429 17.25Z" fill="black"/>
</svg>
