<svg width="24" height="24" viewBox="0 0 24 24" fill="none" xmlns="http://www.w3.org/2000/svg">
<path fill-rule="evenodd" clip-rule="evenodd" d="M11.0586 4.74658C7.57266 4.74658 4.7467 7.57253 4.7467 11.0585C4.7467 14.5445 7.57266 17.3705 11.0586 17.3705C12.7909 17.3705 14.3601 16.6727 15.5006 15.5429C15.5074 15.5356 15.5143 15.5284 15.5214 15.5213C15.5285 15.5142 15.5357 15.5072 15.543 15.5005C16.6728 14.36 17.3706 12.7907 17.3706 11.0585C17.3706 7.57253 14.5446 4.74658 11.0586 4.74658ZM17.0875 16.0267C18.2014 14.6765 18.8706 12.9456 18.8706 11.0585C18.8706 6.74411 15.3731 3.24658 11.0586 3.24658C6.74423 3.24658 3.2467 6.74411 3.2467 11.0585C3.2467 15.3729 6.74423 18.8705 11.0586 18.8705C12.9458 18.8705 14.6766 18.2013 16.0268 17.0874L19.473 20.5336C19.7659 20.8265 20.2408 20.8265 20.5337 20.5336C20.8266 20.2407 20.8266 19.7658 20.5337 19.4729L17.0875 16.0267Z" fill="black"/>
</svg>
