<svg width="24" height="24" viewBox="0 0 24 24" fill="none" xmlns="http://www.w3.org/2000/svg">
<path fill-rule="evenodd" clip-rule="evenodd" d="M16.8565 3.63133C17.9862 2.64396 19.6889 2.69927 20.7513 3.76173C21.8118 4.82356 21.8698 6.52674 20.8801 7.65632L13.8485 15.6928C12.8018 16.8895 10.9595 16.9512 9.83468 15.8264L8.68568 14.6774C7.56113 13.5528 7.62139 11.7115 8.81915 10.6636L16.8565 3.63133ZM19.6903 4.82205C19.1868 4.31883 18.3797 4.29226 17.8436 4.76078L9.80687 11.7925C9.26267 12.2686 9.2349 13.1053 9.74634 13.6167L10.8953 14.7657C11.4066 15.277 12.2442 15.2486 12.7195 14.7053L19.7516 6.66819C20.2198 6.13377 20.1939 5.32622 19.6903 4.82205Z" fill="black"/>
<path fill-rule="evenodd" clip-rule="evenodd" d="M10.3397 9.33973C10.6326 9.04683 11.1074 9.04683 11.4003 9.33973L15.1803 13.1197C15.4732 13.4126 15.4732 13.8875 15.1803 14.1804C14.8874 14.4733 14.4126 14.4733 14.1197 14.1804L10.3397 10.4004C10.0468 10.1075 10.0468 9.63262 10.3397 9.33973Z" fill="black"/>
<path fill-rule="evenodd" clip-rule="evenodd" d="M4.01078 15.4137C4.97239 12.8478 8.2638 12.1352 10.2013 14.0727C12.7848 16.6562 10.9552 21.0731 7.30201 21.0731H3.59901C2.77057 21.0731 2.20038 20.2471 2.48806 19.4736L2.48878 19.4717L4.01078 15.4137V15.4137ZM9.14068 15.1334C7.97428 13.967 5.99383 14.3963 5.41533 15.9402L4.05279 19.5731H7.30201C9.61878 19.5731 10.7792 16.7719 9.14068 15.1334Z" fill="black"/>
</svg>
